<?xml version="1.0" encoding="utf-8"?>
<!-- Generator: Adobe Illustrator 24.1.0, SVG Export Plug-In . SVG Version: 6.00 Build 0)  -->
<svg version="1.1" id="Laag_1" xmlns="http://www.w3.org/2000/svg" xmlns:xlink="http://www.w3.org/1999/xlink" x="0px" y="0px"
	 viewBox="0 0 512 512" style="enable-background:new 0 0 512 512;" xml:space="preserve">
<style type="text/css">
	.st0{fill:#818181;}
</style>
<path class="st0" d="M509,248.8c-33.9-41.4-73.5-73.6-117.6-95.5c-42.5-21.1-87.4-32-133.4-32.3c-0.6,0-1.3,0-1.9,0s-1.3,0-1.9,0
	c-46.1,0.3-91,11.1-133.4,32.3c-44.1,22-83.7,54.1-117.6,95.5c-2,2-3,4.6-3,7.2c0,2.6,1,5.2,3,7.2c33.9,41.4,73.5,73.6,117.6,95.5
	c42.5,21.1,87.4,32,133.4,32.3c0.6,0,1.3,0,1.9,0s1.3,0,1.9,0c46.1-0.3,91-11.1,133.4-32.3c44.3-22,83.9-54.3,118-95.9
	c1.7-1.8,2.7-4.2,2.7-6.8C512,253.2,510.9,250.7,509,248.8z M129.5,340.8C89.9,321.1,54.1,292.6,23.1,256
	c31.1-36.6,66.9-65.1,106.5-84.8c11.7-5.8,23.5-10.8,35.5-14.9C138,181,121,216.6,121,256s17,75,44.1,99.7
	C153.1,351.6,141.2,346.6,129.5,340.8z M256,371c-63.4,0-115-51.6-115-115s51.6-115,115-115s115,51.6,115,115S319.4,371,256,371z
	 M382.5,340.8c-11.7,5.8-23.5,10.8-35.5,14.9C374,331,391,295.4,391,256s-17-75-44.1-99.7c12,4.1,23.9,9.1,35.5,14.9
	c39.6,19.7,75.4,48.2,106.5,84.8C457.9,292.6,422.1,321.1,382.5,340.8z"/>
<path class="st0" d="M256,311c-30.3,0-55-24.7-55-55s24.7-55,55-55s55,24.7,55,55S286.3,311,256,311z M256,221
	c-19.3,0-35,15.7-35,35s15.7,35,35,35s35-15.7,35-35S275.3,221,256,221z"/>
<path class="st0" d="M256,471c-5.5,0-10-4.5-10-10v-40c0-5.5,4.5-10,10-10s10,4.5,10,10v40C266,466.5,261.5,471,256,471z"/>
<path class="st0" d="M330.1,459.2c-2.6,0-5.1-1-7.1-2.9L294.8,428c-3.9-3.9-3.9-10.2,0-14.1c3.9-3.9,10.2-3.9,14.1,0l28.3,28.3
	c3.9,3.9,3.9,10.2,0,14.1C335.3,458.3,332.7,459.2,330.1,459.2z"/>
<path class="st0" d="M181.9,459.2c-2.6,0-5.1-1-7.1-2.9c-3.9-3.9-3.9-10.2,0-14.1l28.3-28.3c3.9-3.9,10.2-3.9,14.1,0
	c3.9,3.9,3.9,10.2,0,14.1l-28.3,28.3C187,458.3,184.4,459.2,181.9,459.2z"/>
<path class="st0" d="M256,101c-5.5,0-10-4.5-10-10V51c0-5.5,4.5-10,10-10s10,4.5,10,10v40C266,96.5,261.5,101,256,101z"/>
<path class="st0" d="M210.1,101c-2.6,0-5.1-1-7.1-2.9l-28.3-28.3c-3.9-3.9-3.9-10.2,0-14.1c3.9-3.9,10.2-3.9,14.1,0l28.3,28.3
	c3.9,3.9,3.9,10.2,0,14.1C215.3,100,212.7,101,210.1,101z"/>
<path class="st0" d="M301.9,101c-2.6,0-5.1-1-7.1-2.9c-3.9-3.9-3.9-10.2,0-14.1l28.3-28.3c3.9-3.9,10.2-3.9,14.1,0
	c3.9,3.9,3.9,10.2,0,14.1L308.9,98C307,100,304.4,101,301.9,101z"/>
<path class="st0" d="M256,21c-5.5,0-10-4.5-10-10s4.5-10,10-10h0c5.5,0,10,4.5,10,10S261.5,21,256,21z"/>
<path class="st0" d="M256,511c-5.5,0-10-4.5-10-10s4.5-10,10-10h0c5.5,0,10,4.5,10,10S261.5,511,256,511z"/>
</svg>
