<?xml version="1.0" encoding="utf-8"?>
<!-- Generator: Adobe Illustrator 24.1.0, SVG Export Plug-In . SVG Version: 6.00 Build 0)  -->
<svg version="1.1" id="Laag_1" xmlns="http://www.w3.org/2000/svg" xmlns:xlink="http://www.w3.org/1999/xlink" x="0px" y="0px"
	 viewBox="0 0 512 512" style="enable-background:new 0 0 512 512;" xml:space="preserve">
<style type="text/css">
	.st0{fill:#818181;}
</style>
<path class="st0" d="M42.7,298.7c4.7,0,8.5-3.8,8.5-8.5V102.4c0-4.7-3.8-8.5-8.5-8.5c-4.7,0-8.5,3.8-8.5,8.5v187.7
	C34.1,294.8,38,298.7,42.7,298.7z"/>
<path class="st0" d="M42.7,76.8c4.7,0,8.5-3.8,8.5-8.5V51.2c0-4.7-3.8-8.5-8.5-8.5c-4.7,0-8.5,3.8-8.5,8.5v17.1
	C34.1,73,38,76.8,42.7,76.8z"/>
<path class="st0" d="M256,170.7c-18.9,0-34.1,15.3-34.1,34.1s15.3,34.1,34.1,34.1s34.1-15.3,34.1-34.1
	C290.1,186,274.8,170.7,256,170.7z M256,221.9c-9.4,0-17.1-7.6-17.1-17.1c0-9.4,7.6-17.1,17.1-17.1c9.4,0,17.1,7.6,17.1,17.1
	C273.1,214.2,265.4,221.9,256,221.9z"/>
<path class="st0" d="M350,170.6h-0.1l-15.7,0c-2.6-5.8-5.7-11.3-9.5-16.5l7.9-13.7c4.6-8.2,1.7-18.5-6.4-23.2l-29.5-17
	c-3.9-2.3-8.5-2.9-12.9-1.8c-4.4,1.2-8.2,4-10.4,7.9l-7.9,13.6c-6.3-0.7-12.7-0.7-19,0l-7.8-13.6c-4.7-8.2-15.2-10.9-23.3-6.2
	l-29.6,17.1c-8.2,4.7-10.9,15.1-6.3,23.3l7.9,13.6c-3.8,5.1-7,10.6-9.5,16.5l-15.8,0c-4.5,0-8.9,1.9-12.1,5.1
	c-3.2,3.2-4.9,7.5-4.9,12l0,34.1c0,9.4,7.6,17.1,17,17.2l15.7,0c1.3,2.9,2.7,5.7,4.3,8.5c1.6,2.7,3.3,5.4,5.2,8l-7.9,13.7
	c-4.6,8.2-1.7,18.5,6.4,23.2l29.5,17c3.9,2.3,8.5,3,12.9,1.8c4.4-1.2,8.2-4,10.5-7.9l7.9-13.6c6.3,0.7,12.7,0.7,19,0l7.8,13.6
	c2.3,3.9,6,6.8,10.4,7.9c1.5,0.4,3,0.6,4.5,0.6c3,0,5.9-0.8,8.5-2.3l29.6-17.1c8.2-4.7,10.9-15.1,6.3-23.3l-7.8-13.6
	c3.8-5.1,7-10.6,9.5-16.5l15.8,0c4.5,0,8.9-1.9,12.1-5.1c3.2-3.2,4.9-7.5,4.9-12l0-34.1C366.9,178.4,359.4,170.8,350,170.6z
	 M328.3,221.9c-3.6,0-6.9,2.3-8,5.7c-2.8,7.9-7,15.2-12.4,21.5c-2.4,2.7-2.7,6.7-0.9,9.8l10.7,18.6l-29.6,17.1L277.4,276
	c-1.5-2.6-4.3-4.3-7.4-4.3c-0.5,0-1.1,0-1.6,0.1c-8.2,1.5-16.6,1.5-24.8,0c-3.6-0.7-7.2,1-9,4.1l-10.8,18.6l-29.6-17l10.7-18.6
	c1.8-3.1,1.4-7.1-0.9-9.8c-5.4-6.4-9.6-13.6-12.4-21.5c-1.2-3.4-4.4-5.7-8.1-5.7l-21.5-0.1l0-34.1l21.6,0c3.6,0,6.9-2.3,8.1-5.7
	c2.8-7.9,7-15.1,12.4-21.5c2.4-2.7,2.7-6.7,0.9-9.8L194.3,132l29.6-17.1l10.8,18.6c1.8,3.1,5.4,4.8,9,4.1c8.2-1.5,16.6-1.6,24.8,0
	c3.6,0.7,7.2-1,9-4.1l10.8-18.6l29.6,17L307,150.7c-1.8,3.1-1.4,7.1,0.9,9.8c5.4,6.3,9.6,13.6,12.4,21.5c1.2,3.4,4.4,5.7,8.1,5.7
	l21.5,0l0,34.2L328.3,221.9z"/>
<path class="st0" d="M512,92c-0.9-27.6-23.6-49.4-51.2-49.3H119.5V17.1c0-9.4-7.6-17.1-17.1-17.1H51.2C37.6,0,24.6,5.3,15,15
	S0,37.6,0,51.2v367c1,27.6,23,49.8,50.5,51c0.2,0,0.4,0.1,0.7,0.1h5.9L69.7,497c0.6,1.4,1.4,2.7,2.3,3.9c0.3,0.4,0.6,0.8,0.9,1.1
	c0.6,0.8,1.3,1.6,2.1,2.3c0.4,0.4,0.7,0.7,1.1,1.1c1.1,0.9,2.2,1.8,3.4,2.6c0.3,0.2,0.6,0.3,0.8,0.4c1,0.6,2.1,1.1,3.2,1.6
	c0.2,0.1,0.4,0.2,0.7,0.3c0.3,0.1,0.6,0.1,0.9,0.2c0.8,0.3,1.7,0.5,2.5,0.7c0.5,0.1,1,0.3,1.6,0.3c1.1,0.2,2.2,0.3,3.3,0.3
	c0.2,0,0.5,0.1,0.7,0.1c3.7,0,7.3-0.8,10.6-2.3l88.5-40.4h200.4v25.6c0,9.4,7.6,17.1,17.1,17.1h51.2c28.3,0,51.2-22.9,51.2-51.2
	V93.9c0-0.1-0.1-0.2-0.1-0.3C511.9,93.1,512,92.5,512,92z M27,27.1c6.4-6.4,15.1-10,24.2-10h51.2v349.9H51.2
	c-12.6,0-24.7,4.7-34.1,13.1V51.2C17.1,42.2,20.6,33.5,27,27.1z M312.4,391.5l-18.1-39.6l54.6-3.6l1.7,4.6L312.4,391.5z
	 M277.2,355.5l7.1,15.5l-54.3,24.8c-2.8,1.2-4.8,3.9-5.1,7c-0.3,3.1,1.1,6.1,3.6,7.8c2.5,1.8,5.8,2.1,8.6,0.7l54.3-24.8l7.1,15.5
	L187,452.9l-0.2,0.1l-43.7,19.9l-7.1-15.5l62.1-28.3c4.2-2,6-7,4.1-11.2c-1.9-4.2-6.9-6.1-11.2-4.3L129,441.9l-7.1-15.5L277.2,355.5
	z M96.6,494.2c-4.3,2-9.3,0.1-11.3-4.2l-14.2-31.1c-1.9-4.3-0.1-9.3,4.2-11.3l31.1-14.2l10.6,23.3v0l0,0l10.6,23.3L96.6,494.2z
	 M229.5,452.3l83.7-38.2c0.4-0.3,0.8-0.5,1.2-0.9c0.5-0.2,0.9-0.5,1.3-0.9l46.7-47.2c5.4-5,7-12.9,3.9-19.6l-2-4.3
	c-3-6.6-9.8-10.6-17-9.9l-66.6,4.4c-0.9,0.1-1.8,0.3-2.7,0.7c-0.1,0-0.2,0-0.3,0.1L68.2,432c-8.1,3.7-13.7,11.4-14.7,20.2h-0.3
	C34,452.5,18,437.4,17.1,418.1v-1.2c0.6-18.4,15.7-33,34.1-32.9h51.2c9.4,0,17.1-7.6,17.1-17.1V59.7h341.3
	c18.4-0.1,33.5,14.5,34.1,32.9c0.2,9-3.2,17.6-9.5,24c-7,7.2-16.6,11.4-26.7,11.4h-49.1c-9.4,0-17.1,7.6-17.1,17.1v307.2H229.5z
	 M460.8,494.9h-51.2V145.1h49.1c13.4-0.1,26.3-5.1,36.2-14v329.8C494.9,479.6,479.6,494.9,460.8,494.9z"/>
</svg>
