<?xml version="1.0" encoding="utf-8"?>
<!-- Generator: Adobe Illustrator 24.1.0, SVG Export Plug-In . SVG Version: 6.00 Build 0)  -->
<svg version="1.1" id="Laag_1" xmlns="http://www.w3.org/2000/svg" xmlns:xlink="http://www.w3.org/1999/xlink" x="0px" y="0px"
	 viewBox="0 0 512 512" style="enable-background:new 0 0 512 512;" xml:space="preserve">
<style type="text/css">
	.st0{fill:#818181;}
</style>
<desc>Created with Sketch.</desc>
<g id="Page-1">
	<g id="_x30_01---Thinking" transform="translate(-1.000000, -1.000000)">
		<path id="Shape" class="st0" d="M13.6,320.1c2.8,1.9,5.8,3.7,8.9,5.1c3.7,1.9,9.9,5,10.3,7.3c0.5,2.9,0.2,5.9-1,8.6
			c-1.3,2.7-2.6,5.1-3.8,7.1c-3.1,5.5-8.4,14.8-0.5,21.2c1.8,1.7,5,4.2,7.9,6.4c-2.1,3.7-3.1,8-2.8,12.3c0.4,3.4,2.3,6.4,5,8.4
			c1.9,1.4,4,2.6,6,3.7c5,2.9,7,4.2,7.7,6.8c0.5,3.5,0.1,7-0.9,10.3c-0.5,2.2-1,4.4-1.3,6.7c-0.8,7.8,0.1,15.7,2.9,23
			c3.8,13.6,16.1,23.1,30.2,23.3c2.3,0,4.7-0.3,7-0.7c24.4-5.8,48.4-13,71.9-21.5c19.2,11.3,31.4,45.6,34.5,58.5
			c0.9,3.8,4.4,6.5,8.3,6.5l214.2-0.6c2.7,0,5.3-1.3,6.9-3.5c1.6-2.2,2.1-5,1.3-7.6c-2.1-5.8-5-11.2-8.6-16.2c-2-2.9-3.9-6-5.5-9.2
			c-3.9-7.8-7.1-16-9.6-24.3c-4.9-16.5-8.2-33.4-10.1-50.5c-3-25.5,0.9-51.4,11.2-74.9c6.3-13.1,14.1-25.3,23.2-36.6
			c5.1-6.9,10.4-14.1,15.2-21.6c8.2-12.7,14.1-26.8,17.6-41.6c1-4.6-1.9-9.1-6.4-10.1c-4.5-1.1-9.1,1.7-10.2,6.3
			c-3,12.9-8.2,25.1-15.4,36.3c-4.4,7-9.5,13.9-14.5,20.6c-9.9,12.3-18.3,25.7-25.1,40c-11.6,26.3-15.9,55.2-12.5,83.8
			c2,18.1,5.6,36,10.8,53.5c2.8,9.2,6.3,18.1,10.6,26.7c1.9,3.8,4.2,7.6,6.6,11.1l0.6,0.9l-193.6,0.6c-5.7-20.2-16-38.9-30-54.5
			l7.7-2.7c5.7-2,10.1-3.5,12.3-4.3c36.5-11.6,54.8-28.3,54.3-49.5c0-2.3-1-4.4-2.6-6c-1.6-1.6-3.8-2.4-6.1-2.3
			c-4.7,0.1-8.4,4-8.3,8.7c0.2,8.7-7,21.5-42.5,32.8c-2.3,0.7-6.8,2.3-12.7,4.4c-6.3,2.2-14.4,5-23.3,8h-0.1
			c-24,8.8-48.5,16.2-73.3,22.2c-7.9,1.5-15.7-3.5-17.6-11.4c-1.8-4.8-2.6-10-2.1-15.1c0.2-1.7,0.6-3.5,1-5.2
			c1.8-6,2.1-12.3,0.9-18.4c-2.5-7.8-8.2-14.2-15.8-17.4l-1.8-1c0.9-1.9,2-3.6,3.3-5.3c1.4-1.8,2.1-4.1,1.8-6.4
			c-0.3-2.3-1.5-4.4-3.4-5.7c-2-1.5-6.8-5.1-10.4-8c0.4-0.7,0.9-1.6,1.3-2.3c1.3-2.4,2.9-5.1,4.4-8.3c2.7-6,3.5-12.6,2.3-19.1
			c-2-10.4-12-15.5-19.3-19.2c-2.5-1.2-4.8-2.5-7-4.1c-1.8-1.2-3.5-2.6-5.1-4.1c0-1.3,1.4-4.4,7.9-12.3c15.3-19.7,28.4-40.9,39-63.4
			c2-3.5,3.1-7.5,3.3-11.5c-0.9-8.6-5.5-16.4-12.5-21.3c-3.5-3.2-6.7-6.2-7.1-8.7c0.1-2.1,0.5-4.1,1.4-6.1c1.4-3.7,3-7.2,4.6-10.8
			c3.6-7.4,6.5-15.2,8.5-23.1c2-9.6,4.5-19,7.7-28.2c6.7-18.6,17.1-35.6,30.6-50c16.3-17.3,42-29.5,76.5-36.3
			c26.4-5.8,53.1-9.6,80.1-11.5c9.1-0.5,18.1-0.3,27.2,0.6c3,0.3,6-1.1,7.8-3.6c1.8-2.5,2.1-5.7,0.8-8.5c-1.3-2.8-3.9-4.7-7-4.9
			c-9.9-0.9-19.8-1.1-29.7-0.6c-27.8,1.9-55.3,5.9-82.5,11.8c-38.5,7.7-66.4,21.2-85.5,41.3C74,70.6,62.4,89.6,54.9,110.3
			c-3.5,10.1-6.3,20.4-8.4,30.8c-1.8,6.7-4.3,13.2-7.3,19.5c-1.7,3.9-3.5,7.8-5,11.8c-1.9,4.5-2.7,9.4-2.3,14.3
			c1.8,7.6,6.2,14.4,12.5,19c4.2,3.8,6.9,6.5,7,8.9c-0.3,1.3-0.8,2.5-1.5,3.7c-10.2,21.5-22.7,41.9-37.3,60.7
			c-6.2,7.5-12.7,16.3-11.3,25.1C3,310.9,7.4,316.6,13.6,320.1z"/>
		<path id="Shape_1_" class="st0" d="M102.9,128.1c5.1-14.2,13.1-27.3,23.4-38.4c11.4-12,31-20.9,58.5-26.4c4.6-0.9,7.6-5.4,6.7-10
			s-5.4-7.6-10-6.7c-31,6.2-53.7,16.7-67.5,31.4c-11.9,12.8-21.1,27.8-27,44.3c-2.9,8.5-5.2,17.2-7,26l16.7,3.7
			C98.1,143.8,100.3,135.9,102.9,128.1z"/>
		<path id="Shape_2_" class="st0" d="M281.4,48.8l-5.1,25.5c-4.9,1.6-9.7,3.6-14.4,6l-21.7-14.5c-6.8-4.4-15.7-3.5-21.4,2.2
			l-14.2,14.2c-5.8,5.7-6.8,14.8-2.3,21.6l14.4,21.6c-2.4,4.6-4.4,9.4-6,14.4l-25.5,5.1c-8,1.6-13.7,8.6-13.7,16.7v20.1
			c0,8.1,5.7,15.1,13.7,16.7l25.5,5.1c1.6,4.9,3.6,9.7,6,14.4l-14.5,21.7c-4.4,6.8-3.5,15.7,2.2,21.4l14.2,14.2
			c5.7,5.8,14.8,6.8,21.6,2.2l21.6-14.4c4.6,2.4,9.4,4.4,14.4,6l5.1,25.5c1.6,8,8.6,13.7,16.7,13.7h20.1c8.1,0,15.1-5.7,16.7-13.7
			l5.1-25.5c4.9-1.6,9.7-3.6,14.4-6l21.7,14.5c6.8,4.4,15.7,3.5,21.4-2.2l14.2-14.2c5.8-5.7,6.8-14.8,2.3-21.6L399.6,218
			c2.4-4.6,4.4-9.4,6-14.4l25.5-5.1c5.1-1,9.4-4.3,11.8-8.9l12.9,8.6c2.5,1.6,5.4,2.4,8.3,2.4c4.1,0,8-1.6,10.9-4.5l11.3-11.3
			c5.2-5.2,6-13.3,2-19.4l-11-16.5c1.6-3.2,3-6.5,4.1-9.9l19.3-3.8c7.2-1.4,12.4-7.8,12.4-15.1v-16c0-7.3-5.1-13.7-12.3-15.1
			l-19.4-3.9c-1.1-3.4-2.5-6.7-4.1-9.9l11.2-16.7c3.9-6.1,3-14.1-2.1-19.2l-11.3-11.3c-5.2-5.2-13.3-6-19.4-2l-16.5,11
			c-3.2-1.6-6.5-3-9.9-4.1l-3.9-19.3C423.8,6.2,417.4,1,410.1,1h-16c-7.3,0-13.7,5.1-15.1,12.3l-3.9,19.4c-3.4,1.2-6.7,2.5-9.9,4.1
			l-16.7-11.2c-6.1-3.9-14.1-3-19.2,2.1l-7.7,7.7c-1.1-0.2-2.2-0.4-3.4-0.4h-20.1C290,35.1,283,40.8,281.4,48.8z M411.9,82.2l-4-4
			c14.8,2,26.6,13.4,29,28.1c2.4,14.7-5,29.3-18.4,36l-13-2.6c-1.6-4.9-3.6-9.7-6-14.4l14.5-21.7C418.5,96.9,417.6,88,411.9,82.2
			L411.9,82.2z M340.4,40.8l19.5,13.1c2.7,1.8,6.3,1.9,9.1,0.2c4.9-2.9,10.1-5.1,15.6-6.5c3.1-0.8,5.5-3.4,6.1-6.6l4.6-23h13.3
			l4.6,23c0.6,3.2,3,5.7,6.1,6.6c5.5,1.5,10.7,3.7,15.6,6.5c2.8,1.7,6.4,1.6,9.1-0.3l19.5-13.1l9.5,9.5l-13.1,19.5
			c-1.8,2.7-1.9,6.3-0.2,9.1c2.9,4.9,5.1,10.1,6.5,15.6c0.8,3.1,3.4,5.5,6.6,6.1l23,4.6v13.3l-23,4.6c-3.2,0.6-5.7,3-6.6,6.1
			c-1.5,5.5-3.7,10.7-6.5,15.6c-1.7,2.8-1.6,6.4,0.2,9.1l13.1,19.5l-9.5,9.5l-19-12.7v-8.7c0-5-2.2-9.7-6-13
			c15-14.5,19.7-36.6,11.9-56c-7.8-19.3-26.6-32-47.5-31.9c-5.2,0-10.3,0.9-15.2,2.5c-4.2-0.6-8.4,0.3-11.9,2.6l-21.5,14.4
			c-4.6-2.4-9.4-4.4-14.4-6L335,48.8c-0.2-0.7-0.3-1.4-0.6-2L340.4,40.8z M292,82.7l6.1-30.5h20.1l6.1,30.5c0.6,3.2,3,5.7,6.1,6.6
			c7.1,1.9,13.8,4.7,20.1,8.4c2.8,1.6,6.3,1.5,9-0.3l25.8-17.3l14.3,14.2l-17.3,25.8c-1.8,2.7-1.9,6.2-0.3,9
			c3.7,6.3,6.5,13.1,8.4,20.1c0.8,3.1,3.4,5.5,6.6,6.1l30.5,6.1v20.1l-30.5,6.1c-3.2,0.6-5.7,3-6.6,6.1c-1.9,7.1-4.7,13.8-8.4,20.1
			c-1.6,2.8-1.5,6.3,0.3,9l17.3,25.8l-14.2,14.3L359.7,246c-2.7-1.8-6.2-1.9-9-0.3c-6.3,3.7-13.1,6.5-20.1,8.4
			c-3.1,0.8-5.5,3.4-6.1,6.6l-6.1,30.5h-20.1l-6.1-30.5c-0.6-3.2-3-5.7-6.1-6.6c-7.1-1.9-13.8-4.7-20.1-8.4c-2.8-1.6-6.3-1.5-9,0.3
			l-25.8,17.3L216.6,249l17.3-25.8c1.8-2.7,1.9-6.2,0.3-9c-3.7-6.3-6.5-13.1-8.4-20.1c-0.8-3.1-3.4-5.5-6.6-6.1l-30.5-6.1v-20.1
			l30.5-6.1c3.2-0.6,5.7-3,6.6-6.1c1.9-7.1,4.7-13.8,8.4-20.1c1.6-2.8,1.5-6.3-0.3-9l-17.3-25.8L230.9,80l25.8,17.3
			c2.7,1.8,6.2,1.9,9,0.3c6.3-3.7,13.1-6.5,20.1-8.4C289,88.4,291.4,85.9,292,82.7z"/>
		<path id="Shape_3_" class="st0" d="M308.2,231.4c33,0,59.7-26.7,59.7-59.7s-26.7-59.7-59.7-59.7s-59.7,26.7-59.7,59.7
			C248.5,204.6,275.2,231.4,308.2,231.4z M308.2,129c23.6,0,42.7,19.1,42.7,42.7s-19.1,42.7-42.7,42.7c-23.6,0-42.7-19.1-42.7-42.7
			C265.6,148.1,284.6,129,308.2,129z"/>
		<circle id="Oval" class="st0" cx="308.2" cy="171.7" r="8.5"/>
		<circle id="Oval_1_" class="st0" cx="77.8" cy="180.2" r="8.5"/>
	</g>
</g>
</svg>
